<?xml version="1.0" ?><!-- Uploaded to: SVG Repo, www.svgrepo.com, Generator: SVG Repo Mixer Tools -->
<svg fill="#000000" width="800px" height="800px" viewBox="0 -0.08 20 20" data-name="Capa 1" id="Capa_1" xmlns="http://www.w3.org/2000/svg"><path d="M15.69,4.31H4.31A1.61,1.61,0,0,0,2.7,5.92v8a1.61,1.61,0,0,0,1.61,1.61H15.69a1.61,1.61,0,0,0,1.61-1.61v-8A1.61,1.61,0,0,0,15.69,4.31ZM4.31,4.92H15.69a1,1,0,0,1,1,1v.72H3.31V5.92A1,1,0,0,1,4.31,4.92Zm11.38,10H4.31a1,1,0,0,1-1-1V7.25H16.69v6.67A1,1,0,0,1,15.69,14.92Z"/><path d="M4.31,6.18A.34.34,0,1,0,4,5.85.34.34,0,0,0,4.31,6.18Z"/><path d="M5.16,6.18a.34.34,0,1,0-.33-.33A.34.34,0,0,0,5.16,6.18Z"/><path d="M6,6.18a.34.34,0,1,0-.33-.33A.34.34,0,0,0,6,6.18Z"/><path d="M11,10.19l-.39.88-.4-.88s0,0-.07-.07,0-.06-.08-.08h0s-.07,0-.11,0a.17.17,0,0,0-.12,0h0s-.06.06-.08.08-.06,0-.08.07l-.39.88-.39-.88A.32.32,0,0,0,8.45,10a.3.3,0,0,0-.15.4L9,12a.38.38,0,0,0,.14.14h0l.12,0,.12,0h0A.38.38,0,0,0,9.53,12l.39-.89.4.89a.38.38,0,0,0,.14.14h0a.28.28,0,0,0,.13,0l.12,0h0a.38.38,0,0,0,.14-.14l.68-1.51a.31.31,0,0,0-.16-.4A.3.3,0,0,0,11,10.19Z"/><path d="M14.42,10.19l-.39.88-.4-.88s-.05,0-.07-.07,0-.06-.08-.08h0a.17.17,0,0,0-.12,0s-.07,0-.11,0h0s-.05.05-.08.08-.06,0-.07.07l-.4.88-.39-.88a.3.3,0,0,0-.4-.15.3.3,0,0,0-.16.4L12.41,12a.38.38,0,0,0,.14.14h0l.12,0a.28.28,0,0,0,.13,0h0A.38.38,0,0,0,13,12l.4-.89.39.89a.38.38,0,0,0,.14.14h0a.31.31,0,0,0,.13,0l.12,0h0a.41.41,0,0,0,.15-.14L15,10.44a.3.3,0,0,0-.16-.4A.3.3,0,0,0,14.42,10.19Z"/><path d="M7.56,10.19l-.39.88-.39-.88a.24.24,0,0,0-.08-.06A.23.23,0,0,0,6.62,10h0a.17.17,0,0,0-.12,0s-.07,0-.11,0h0l-.08.08s-.06,0-.07.07l-.4.88-.39-.88A.3.3,0,0,0,5,10a.31.31,0,0,0-.16.4L5.55,12a.38.38,0,0,0,.14.14h0l.12,0a.28.28,0,0,0,.13,0H6A.38.38,0,0,0,6.1,12l.4-.89.39.89a.38.38,0,0,0,.14.14h0l.12,0,.12,0h0A.38.38,0,0,0,7.45,12l.67-1.51A.3.3,0,0,0,8,10,.32.32,0,0,0,7.56,10.19Z"/></svg>